<svg width="664" height="48" viewBox="0 0 664 48" fill="none" xmlns="http://www.w3.org/2000/svg">
<path d="M0 23.14H45.32L25.31 0.77H26.97L47.55 23.78L26.97 46.79H25.31L45.32 24.42H0V23.14Z" fill="#0B0E26"/>
<path d="M93.57 29.85H79.89V46.79H65.38V0.77H79.89V16.94H93.57V0.77H108.08V46.79H93.57V29.85Z" fill="#0B0E26"/>
<path d="M136.14 29.4L118.56 0.77H135.18L143.36 15.98L151.54 0.77H167.39L150.58 29.02V46.79H136.13V29.4H136.14Z" fill="#0B0E26"/>
<path d="M177.87 0.77H199.22C211.17 0.77 217.88 7.35 217.88 17.13C217.88 26.91 211.17 33.43 199.22 33.43H192.38V46.79H177.87V0.77ZM198.01 21.28C201.4 21.28 203.51 20.64 203.51 17.13C203.51 13.62 201.4 12.91 198.01 12.91H192.39V21.28H198.01Z" fill="#0B0E26"/>
<path d="M229.84 0.77H266.98V13.68H244.35V17.83H265.25V29.85H244.35V33.88H266.98V46.79H229.84V0.77Z" fill="#0B0E26"/>
<path d="M303.02 0.77C315.04 0.77 320.21 7.1 320.21 15.02C320.21 20.01 317.46 23.9 313.37 26.59C317.65 29.02 319.19 32.34 319.83 36.5L321.3 46.79H306.53L305.25 37.65C304.61 33.69 302.89 31.51 299.43 31.51H294.06V46.79H279.55V0.77H303.02ZM299.83 21.03C303.22 21.03 305.33 20.07 305.33 16.49C305.33 12.91 303.22 12.02 299.83 12.02H294.08V21.03H299.83Z" fill="#0B0E26"/>
<path d="M331.21 23.78C331.21 10.55 340.03 0 355.69 0C368.54 0 376.98 7.09 378.57 16.87H363.81C362.34 14.25 359.78 12.33 355.69 12.33C348.66 12.33 346.23 17.76 346.23 23.77C346.23 29.78 348.66 35.21 355.69 35.21C359.33 35.21 361.95 33.74 363.55 30.93H353.77V20H379.21V46.78H369.43V39.24C366.3 44.54 360.99 47.55 352.68 47.55C340.02 47.55 331.2 37 331.2 23.77L331.21 23.78Z" fill="#0B0E26"/>
<path d="M415.96 0.77C427.98 0.77 433.15 7.1 433.15 15.02C433.15 20.01 430.4 23.9 426.31 26.59C430.59 29.02 432.13 32.34 432.77 36.5L434.24 46.79H419.47L418.19 37.65C417.55 33.69 415.83 31.51 412.37 31.51H407V46.79H392.49V0.77H415.96ZM412.76 21.03C416.15 21.03 418.26 20.07 418.26 16.49C418.26 12.91 416.15 12.02 412.76 12.02H407.01V21.03H412.76Z" fill="#0B0E26"/>
<path d="M444.14 23.78C444.14 10.55 452.96 0 468.62 0C484.28 0 493.04 10.55 493.04 23.78C493.04 37.01 484.22 47.56 468.62 47.56C453.02 47.56 444.14 37.01 444.14 23.78ZM468.62 34.96C475.59 34.96 478.02 29.78 478.02 23.77C478.02 17.76 475.59 12.58 468.62 12.58C461.65 12.58 459.16 17.76 459.16 23.77C459.16 29.78 461.59 34.96 468.62 34.96Z" fill="#0B0E26"/>
<path d="M504.42 28.83V0.77H518.93V28.83C518.93 32.86 521.49 35.16 525.51 35.16C529.53 35.16 532.16 32.86 532.16 28.83V0.77H546.61V28.83C546.61 41.36 537.15 47.56 525.52 47.56C513.89 47.56 504.43 41.36 504.43 28.83H504.42Z" fill="#0B0E26"/>
<path d="M559.89 0.77H581.24C593.19 0.77 599.9 7.35 599.9 17.13C599.9 26.91 593.19 33.43 581.24 33.43H574.4V46.79H559.89V0.77ZM580.03 21.28C583.42 21.28 585.53 20.64 585.53 17.13C585.53 13.62 583.42 12.91 580.03 12.91H574.41V21.28H580.03Z" fill="#0B0E26"/>
<path d="M617.99 24.42L638 46.79H636.34L615.76 23.78L636.34 0.77H638L617.99 23.14H663.31V24.42H617.99Z" fill="#0B0E26"/>
</svg>
